<svg data-v-fde0c5aa="" xmlns="http://www.w3.org/2000/svg" viewBox="0 0 300 300" class="iconLeft"><!----><defs data-v-fde0c5aa=""><!----></defs><rect data-v-fde0c5aa="" fill="transparent" x="0" y="0" width="300px" height="300px" class="logo-background-square"></rect><defs data-v-fde0c5aa=""><!----></defs><g data-v-fde0c5aa="" id="3ea557a1-b773-4d30-a1b8-a5be6f67942e" fill="#000000" transform="matrix(2.7262714530359893,0,0,2.7262714530359893,105.25683300167073,123.96410710351131)"><path d="M0.69 14.35L4.84 14.35L4.84 13.57L3.50 13.57L3.50 9.93L5.84 9.93L5.84 10.91L6.82 10.91L6.82 8.08L5.84 8.08L5.84 9.06L3.50 9.06L3.50 5.45L7.01 5.45L7.01 7.07L8.37 7.07L8.37 4.58L0.69 4.58L0.69 5.36L1.72 5.36L1.72 13.57L0.69 13.57ZM12.54 13.65C11.40 13.65 10.86 12.88 10.86 11.73L10.86 9.69C10.86 8.54 11.40 7.77 12.54 7.77C13.69 7.77 14.22 8.54 14.22 9.69L14.22 11.73C14.22 12.88 13.69 13.65 12.54 13.65ZM12.54 14.52C14.64 14.52 16.06 13.06 16.06 10.71C16.06 8.36 14.64 6.90 12.54 6.90C10.44 6.90 9.03 8.36 9.03 10.71C9.03 13.06 10.44 14.52 12.54 14.52ZM17.26 14.35L21.15 14.35L21.15 13.57L19.91 13.57L19.91 9.24C19.91 8.55 20.65 7.76 21.35 7.76C21.48 7.76 21.55 7.77 21.60 7.78L21.62 7.83C21.43 7.87 21.27 8.11 21.27 8.43C21.27 8.89 21.63 9.25 22.23 9.25C22.83 9.25 23.20 8.86 23.20 8.19C23.20 7.38 22.62 6.90 21.74 6.90C20.75 6.90 20.20 7.53 19.94 8.20L19.87 8.20L19.87 6.90L17.26 7.42L17.26 8.06L18.23 8.25L18.23 13.57L17.26 13.57ZM26.47 14.46C27.29 14.46 28.08 14.32 28.41 14.17L28.41 13.51L26.63 13.51L26.63 7.92L28.41 7.92L28.41 7.07L26.63 7.07L26.63 5.12L25.76 5.12L25.30 6.36C25.12 6.83 24.95 7.07 24.22 7.07L23.98 7.07L23.98 7.92L24.95 7.92L24.95 13.03C24.95 14.03 25.37 14.46 26.47 14.46ZM29.34 14.35L33.24 14.35L33.24 13.57L31.99 13.57L31.99 9.24C31.99 8.55 32.73 7.76 33.43 7.76C33.56 7.76 33.63 7.77 33.68 7.78L33.70 7.83C33.52 7.87 33.35 8.11 33.35 8.43C33.35 8.89 33.71 9.25 34.31 9.25C34.92 9.25 35.28 8.86 35.28 8.19C35.28 7.38 34.71 6.90 33.82 6.90C32.83 6.90 32.28 7.53 32.02 8.20L31.95 8.20L31.95 6.90L29.34 7.42L29.34 8.06L30.31 8.25L30.31 13.57L29.34 13.57ZM39.54 14.52C41.24 14.52 42.21 13.48 42.56 12.53L41.92 12.15C41.58 12.85 40.95 13.37 39.86 13.37C38.64 13.37 37.84 12.56 37.84 11.16L37.84 10.71L42.71 10.71L42.71 10.30C42.71 8.27 41.47 6.90 39.44 6.90C37.44 6.90 36.02 8.40 36.02 10.71C36.02 12.95 37.30 14.52 39.54 14.52ZM37.84 9.74C37.84 8.44 38.42 7.73 39.45 7.73C40.47 7.73 40.98 8.47 40.98 9.77L40.98 9.94L37.84 9.94ZM46.97 14.52C48.65 14.52 49.71 13.62 49.71 12.28C49.71 10.96 48.93 10.33 47.40 9.98L46.68 9.81C45.92 9.65 45.57 9.28 45.57 8.71C45.57 8.09 46.03 7.77 46.87 7.77C47.92 7.77 48.38 8.13 48.38 8.85L48.38 9.25L49.52 9.25L49.52 7.07L48.38 7.07L48.38 7.73L48.33 7.73C48.17 7.27 47.59 6.90 46.65 6.90C45.08 6.90 44.06 7.71 44.06 9.09C44.06 10.33 44.80 11.06 46.33 11.40L47.11 11.58C47.84 11.75 48.20 12.10 48.20 12.63C48.20 13.34 47.68 13.65 46.69 13.65C45.58 13.65 45.14 13.17 45.14 12.42L45.14 12.17L44.00 12.17L44.00 14.35L45.14 14.35L45.14 13.62L45.19 13.62C45.37 14.07 46.00 14.52 46.97 14.52ZM54.01 14.52C55.69 14.52 56.76 13.62 56.76 12.28C56.76 10.96 55.97 10.33 54.45 9.98L53.72 9.81C52.96 9.65 52.61 9.28 52.61 8.71C52.61 8.09 53.07 7.77 53.91 7.77C54.96 7.77 55.43 8.13 55.43 8.85L55.43 9.25L56.56 9.25L56.56 7.07L55.43 7.07L55.43 7.73L55.37 7.73C55.22 7.27 54.63 6.90 53.69 6.90C52.12 6.90 51.10 7.71 51.10 9.09C51.10 10.33 51.84 11.06 53.37 11.40L54.15 11.58C54.88 11.75 55.24 12.10 55.24 12.63C55.24 13.34 54.73 13.65 53.73 13.65C52.63 13.65 52.18 13.17 52.18 12.42L52.18 12.17L51.04 12.17L51.04 14.35L52.18 14.35L52.18 13.62L52.23 13.62C52.42 14.07 53.05 14.52 54.01 14.52Z"></path></g><defs data-v-fde0c5aa=""><linearGradient data-v-fde0c5aa="" gradientTransform="rotate(25)" id="51fc229b-4085-434a-8829-79421b4fb108" x1="0%" y1="0%" x2="100%" y2="0%"><stop data-v-fde0c5aa="" offset="0%" stop-color="#0015D6" stop-opacity="1"></stop><stop data-v-fde0c5aa="" offset="100%" stop-color="#0989FB" stop-opacity="1"></stop></linearGradient></defs><g data-v-fde0c5aa="" id="a6ed7fab-14fc-4a78-b42c-f03977c2e717" stroke="none" fill="url(#51fc229b-4085-434a-8829-79421b4fb108)" transform="matrix(0.6677845472595718,0,0,0.6677845472595718,33.85371071114581,116.55434654443842)"><path d="M85.941 73.486v-5.033h-3.5V44.108h5.334v-8.421h-5.334v-4.333L49.739 19.649 17.038 31.355v4.333h-5.335v8.421h5.335v24.345h-3.5v5.033H9.204v7.033h81.071v-7.033h-4.334zm-13.218-24.01v18.978h-1.312V47.766h3.625v20.688h-1.312V49.476h-1.001zm-10.757 0v18.978h-1.313V47.766h3.625v20.688h-1.312V49.476h-1zm-12.227 2.01a5.01 5.01 0 00-5.01 5.01v11.957h-3.904V47.766h1.29v-3.657h15.248v3.657h1.29v20.688h-3.904V56.496a5.01 5.01 0 00-5.01-5.01zm-13.228-2.01v18.978H35.2V47.766h3.625v20.688h-1.313V49.476h-1.001zm-10.757 0v18.978h-1.312V47.766h3.625v20.688h-1.312V49.476h-1.001zm-5.716-5.368h1.113v3.657h1.291v20.688h-2.404V44.108zm9.32 0v1.657h-6.207v-1.657h6.207zm.709 3.658h1.291v-3.657h.55v3.657H33.2v20.688h-3.133V47.766zm10.048-3.658v1.657h-6.207v-1.657h6.207zm25.455 0v1.657h-6.207v-1.657h6.207zm.708 3.658h1.292v-3.657h.55v3.657h1.291v20.688h-3.133V47.766zm10.049-3.658v1.657H70.12v-1.657h6.207zm.709 3.658h1.291v-3.657h1.114v24.345h-2.405V47.766zM20.038 33.467l29.701-10.632 29.702 10.632v2.22H20.038v-2.22zm-5.335 7.641v-2.421h70.072v2.421H14.703zm.835 29.345H83.941v3.033H15.538v-3.033zm72.737 8.067H11.204v-3.033H88.275v3.033z"></path></g><!----></svg>