<?xml version='1.0' encoding='iso-8859-1'?>
<svg version="1.1" xmlns="http://www.w3.org/2000/svg" viewBox="0 0 44 44" xmlns:xlink="http://www.w3.org/1999/xlink" enable-background="new 0 0 44 44">
  <g>
    <g>
      <g>
        <path d="M43,36h-1.08c-0.486,3.391-3.394,6-6.92,6s-6.435-2.609-6.921-6H27c-0.553,0-1-0.447-1-1c0,4.971,4.029,9,9,9     s9-4.029,9-9C44,35.553,43.553,36,43,36z M1,34h1.195L9.018,9.732L15.84,34H17c0.41,0,0.761,0.248,0.915,0.602     c0.05-0.17,0.07-0.349,0.021-0.531L10.326,7h23.382l-7.609,27.07c-0.046,0.17-0.03,0.337,0.01,0.497     C26.271,34.234,26.604,34,27,34h1.195l6.822-24.268L41.84,34H43c0.41,0,0.761,0.248,0.915,0.602     c0.05-0.17,0.07-0.349,0.021-0.531L35.984,5.925c-0.039-0.501-0.438-0.896-0.945-0.917L35.031,5H23V1c0-0.553-0.447-1-1-1     c-0.553,0-1,0.447-1,1v4H9C8.494,5,8.094,5.381,8.026,5.868L0.099,34.07c-0.046,0.17-0.03,0.337,0.01,0.497     C0.271,34.234,0.604,34,1,34z M17,36h-1.079c-0.487,3.391-3.396,6-6.921,6s-6.435-2.609-6.921-6H1c-0.553,0-1-0.447-1-1     c0,4.971,4.029,9,9,9s9-4.029,9-9C18,35.553,17.553,36,17,36z"/>
      </g>
    </g>
    <g>
      <g>
        <path fill-rule="evenodd" d="m17,34h-16c-0.553,0-1,0.447-1,1s0.447,1 1,1h16c0.553,0 1-0.447 1-1s-0.447-1-1-1zm26,0h-16c-0.553,0-1,0.447-1,1s0.447,1 1,1h16c0.553,0 1-0.447 1-1s-0.447-1-1-1z"/>
      </g>
    </g>
  </g>
</svg>
