<?xml version='1.0' encoding='iso-8859-1'?>
<svg version="1.1" xmlns="http://www.w3.org/2000/svg" viewBox="0 0 44 44" xmlns:xlink="http://www.w3.org/1999/xlink" enable-background="new 0 0 44 44">
  <g>
    <g>
      <g>
        <path fill-rule="evenodd" d="m37,14h-5v-4c0-5.522-4.478-10-10-10-5.523,0-10,4.478-10,10v4h-5c-0.553,0-1,0.447-1,1v28c0,0.552 0.447,1 1,1h30c0.553,0 1-0.448 1-1v-28c0-0.553-0.447-1-1-1zm-23-4c0-4.418 3.582-8 8-8s8,3.582 8,8v4h-2v-4c0-3.313-2.687-6-6-6-3.314,0-6,2.687-6,6v4h-2v-4zm12,0v4h-8v-4c0-2.209 1.791-4 4-4s4,1.791 4,4zm10,32h-28v-26h28v26z"/>
      </g>
    </g>
    <g>
      <g>
        <path d="m22,22c-3.314,0-6,2.687-6,6 0,2.219 1.208,4.145 3,5.178v3.822c0,0.552 0.447,1 1,1h4c0.552,0 1-0.448 1-1v-3.822c1.792-1.033 3-2.959 3-5.178 0-3.313-2.687-6-6-6zm1,9.858v4.142h-2v-4.142c-1.723-0.446-3-1.997-3-3.858 0-2.209 1.791-4 4-4s4,1.791 4,4c0,1.861-1.278,3.412-3,3.858z"/>
      </g>
    </g>
  </g>
</svg>
